<?xml version="1.0" encoding="UTF-8"?>
<svg id="Capa_2" data-name="Capa 2" xmlns="http://www.w3.org/2000/svg" viewBox="0 0 55.67 49.65">
  <defs>
    <style>
      .cls-1 {
        fill: none;
        stroke: #000;
        stroke-linecap: round;
        stroke-linejoin: round;
        stroke-width: 3px;
      }
    </style>
  </defs>
  <path class="cls-1" d="m18.02,31.68l-.92,6.67c9.18-.09,18.37-.42,27.53-1"/>
  <path class="cls-1" d="m20.14,38.65c-1.03.08-2.07.41-2.84,1.1-1.46,1.3-1.6,3.6-.96,5.44.2.58.48,1.15.93,1.57.69.65,1.68.85,2.61,1,.49.08,1,.15,1.48.01.42-.12.78-.4,1.12-.68.81-.67,1.6-1.42,2.03-2.38.65-1.43.37-3.09-.33-4.45-.88-1.71-2.2-1.77-4.05-1.62Z"/>
  <path class="cls-1" d="m42.64,46.25c.67-.79,1.17-1.75,1.23-2.78.11-1.95-1.41-3.68-3.17-4.53-.55-.27-1.15-.47-1.76-.45-.95.03-1.79.59-2.56,1.14-.41.29-.82.6-1.06,1.04-.21.39-.27.83-.31,1.27-.1,1.05-.12,2.13.25,3.12.55,1.47,1.92,2.45,3.38,2.91,1.83.58,2.81-.3,4.01-1.72Z"/>
  <path class="cls-1" d="m1.5,1.5c2.67,1,5.33,2.01,8,3.01,2,8.79,4.01,17.59,6.01,26.38,9.28.47,18.57.94,27.85,1.42.56.03,1.16.05,1.64-.25.45-.28.7-.79.92-1.27,3-6.49,5.75-13.09,8.25-19.78-12.2-.17-24.39-1.11-36.48-2.8"/>
</svg>