<?xml version="1.0" encoding="UTF-8"?>
<svg id="Capa_2" data-name="Capa 2" xmlns="http://www.w3.org/2000/svg" viewBox="0 0 85.9 53.43">
  <defs>
    <style>
      .cls-1 {
        fill: none;
        stroke: #000;
        stroke-linecap: round;
        stroke-linejoin: round;
        stroke-width: 3px;
      }
    </style>
  </defs>
  <path class="cls-1" d="m1.95,26.01c13.86,1.69,27.85,3.38,41.62.42,7.55-1.62,15.27-4.62,22.7-1.98,2.04.73,4.01,1.87,6.06,2.54,3.77,1.23,7.68.83,11.54.42"/>
  <path class="cls-1" d="m54.38,2.59c4.93,6.55,10.65,11.86,16.84,15.63,3.88,2.36,7.96,4.13,11.65,7.06.44.35.93.82.99,1.53.05.57-.18,1.1-.44,1.54-1.99,3.5-5.38,4.44-8.42,5.61-5.77,2.22-11.17,6.01-16.53,9.78-1.32.93-2.67,1.89-3.67,3.44-.89,1.39-1.47,3.21-2.54,4.31"/>
</svg>