<?xml version="1.0" encoding="utf-8"?>
<!-- Generator: Adobe Illustrator 27.0.0, SVG Export Plug-In . SVG Version: 6.00 Build 0)  -->
<svg version="1.1" id="Capa_1" xmlns="http://www.w3.org/2000/svg" xmlns:xlink="http://www.w3.org/1999/xlink" x="0px" y="0px"
	 viewBox="0 0 76.2 76.2" style="enable-background:new 0 0 76.2 76.2;" xml:space="preserve">
<style type="text/css">
	.st0{fill:#FFFFFF;}
</style>
<path class="st0" d="M76.2,38.1c0,7,0,14,0,21c-0.1,6.8-3.2,11.9-9.1,15.2c-2.3,1.3-5,1.9-7.6,1.9H17.1C7.9,76.4,0.2,69,0,59.8
	c0-0.2,0-0.3,0-0.5C0,45.2,0,31,0,16.9C0,8.7,5.9,1.6,14,0.2C14.8,0.1,15.7,0,16.6,0C31,0,45.3,0,59.7,0c9.2,0.2,16.5,7.6,16.5,16.8
	C76.2,23.9,76.2,31,76.2,38.1z M32.2,38.6v22.9h9.2V38.6h6.8c0.3-3.1,0.6-6.1,0.8-9.2h-7.2c0-1.3,0-2.5,0-3.8c-0.1-1,0.7-2,1.7-2.1
	c0.1,0,0.2,0,0.4,0c1.1,0,2.1,0,3.2,0h1.8v-7.8c-2.8,0-5.5-0.1-8.1,0c-4.8,0.3-7.7,3-8.4,7.8c-0.1,1.6-0.2,3.2-0.1,4.8
	c0,0.3,0,0.6,0,1.1h-4.5v9.1L32.2,38.6z"/>
</svg>
