<?xml version="1.0" encoding="utf-8"?>
<!-- Generator: Adobe Illustrator 27.0.0, SVG Export Plug-In . SVG Version: 6.00 Build 0)  -->
<svg version="1.1" id="Capa_1" xmlns="http://www.w3.org/2000/svg" xmlns:xlink="http://www.w3.org/1999/xlink" x="0px" y="0px"
	 viewBox="0 0 76.2 76.2" style="enable-background:new 0 0 76.2 76.2;" xml:space="preserve">
<style type="text/css">
	.st0{fill:#FFFFFF;}
</style>
<path class="st0" d="M0,38V16.8C0,7.5,7.5,0,16.7,0h43c8.5,0.2,15.5,6.6,16.4,15c0.1,0.7,0.1,1.5,0.1,2.2c0,14,0,28.1,0,42.1
	c0,6.9-4.2,13.2-10.7,15.7c-1.9,0.8-3.9,1.2-6,1.2c-14.3,0-28.5,0-42.8,0C7.5,76.2,0,68.7,0,59.4V38z M12.2,38L12.2,38
	c0,3.8,0,7.5,0,11.3c0,8.1,6.5,14.6,14.6,14.7c7.6,0,15.2,0,22.8,0c8-0.1,14.5-6.6,14.6-14.6c0-7.5,0-15.1,0-22.6
	c-0.1-8-6.5-14.5-14.5-14.6c-7.6-0.1-15.3-0.1-22.9,0c-7.8,0.1-14.1,6.3-14.4,14.1C12.1,30.2,12.2,34.1,12.2,38L12.2,38z"/>
<path class="st0" d="M16.6,38.1V27.3c-0.2-5.7,4.2-10.5,9.9-10.7c0.3,0,0.5,0,0.8,0H49c5.7-0.2,10.5,4.3,10.6,10c0,0.2,0,0.4,0,0.6
	c0,7.3,0,14.5,0,21.8c0.1,5.7-4.4,10.4-10.1,10.6c-0.2,0-0.3,0-0.5,0c-7.3,0-14.6,0-21.9,0c-5.7,0.2-10.4-4.3-10.6-10
	c0-0.2,0-0.4,0-0.5C16.6,45.4,16.6,41.8,16.6,38.1z M51.4,38.2c0-7.3-5.9-13.3-13.2-13.4S24.9,30.7,24.8,38
	c0,7.3,5.8,13.3,13.2,13.4C45.3,51.4,51.3,45.5,51.4,38.2L51.4,38.2z M52,27.3c1.8,0,3.2-1.4,3.2-3.2s-1.4-3.2-3.2-3.2
	c-1.8,0-3.2,1.4-3.2,3.2c0,0,0,0,0,0.1C48.8,25.9,50.2,27.3,52,27.3L52,27.3z"/>
<path class="st0" d="M29.3,38.1c0-4.9,4-8.8,8.8-8.8c4.9,0,8.8,4,8.8,8.8c0,4.9-4,8.8-8.8,8.8c0,0,0,0,0,0
	C33.2,46.9,29.3,43,29.3,38.1z"/>
</svg>
