<?xml version="1.0" encoding="utf-8"?>
<!-- Generator: Adobe Illustrator 27.0.0, SVG Export Plug-In . SVG Version: 6.00 Build 0)  -->
<svg version="1.1" id="Capa_1" xmlns="http://www.w3.org/2000/svg" xmlns:xlink="http://www.w3.org/1999/xlink" x="0px" y="0px"
	 viewBox="0 0 76.2 76.2" style="enable-background:new 0 0 76.2 76.2;" xml:space="preserve">
<path d="M59.7,0H16.6c-0.9,0-1.8,0.1-2.6,0.2C5.9,1.6,0,8.7,0,16.9v42.9C0.2,69,7.9,76.4,17.1,76.2h42.4c2.6,0,5.3-0.6,7.6-1.9
	c5.9-3.3,9-8.4,9.1-15.2V16.8C76.2,7.6,68.9,0.2,59.7,0z M55.2,29.3c0,0,3.4,11-10,21.7s-28.9,1-28.9,1c10.5,0,13-4,13-4
	c-7.5-1.7-8.2-6.4-8.2-6.4c2.1,0.8,3.7,0,3.7,0c-8-2.8-6.7-8.9-6.7-8.9c1.5,1.1,3.7,0.9,3.7,0.9c-6.5-5.9-2.4-11.8-2.4-11.8
	c7.1,9.4,18.7,9.6,18.7,9.6s-2.9-6.2,4-10c6.8-3.8,10.9,1.7,10.9,1.7c4.9-1.2,5.6-2.3,5.6-2.3c-0.1,3.2-3.5,4.7-3.5,4.7
	c2,0.3,4.8-1,4.8-1C58.5,27.3,55.2,29.3,55.2,29.3z"/>
</svg>
