<?xml version="1.0" encoding="utf-8"?>
<!-- Generator: Adobe Illustrator 27.0.0, SVG Export Plug-In . SVG Version: 6.00 Build 0)  -->
<svg version="1.1" id="Capa_1" xmlns="http://www.w3.org/2000/svg" xmlns:xlink="http://www.w3.org/1999/xlink" x="0px" y="0px"
	 viewBox="0 0 76.2 76.2" style="enable-background:new 0 0 76.2 76.2;" xml:space="preserve">
<g>
	<polygon points="32.9,45.5 46.8,37.7 32.9,29.8 	"/>
	<path d="M59.7,0H16.6c-0.9,0-1.8,0.1-2.6,0.2C5.9,1.6,0,8.7,0,16.9v42.9C0.2,69,7.9,76.4,17.1,76.2h42.4c2.6,0,5.3-0.6,7.6-1.9
		c5.9-3.3,9-8.4,9.1-15.2V16.8C76.2,7.6,68.9,0.2,59.7,0z M63.3,48.7c0,4.2-3.4,7.5-7.5,7.5H20.5c-4.2,0-7.5-3.4-7.5-7.5V27.5
		c0-4.2,3.4-7.5,7.5-7.5h35.2c4.2,0,7.5,3.4,7.5,7.5L63.3,48.7L63.3,48.7z"/>
</g>
</svg>
